<?xml version="1.0" encoding="UTF-8"?><svg xmlns="http://www.w3.org/2000/svg" xmlns:xlink="http://www.w3.org/1999/xlink" contentScriptType="text/ecmascript" width="375pt" zoomAndPan="magnify" contentStyleType="text/css" viewBox="0 0 375 374.999991" height="374.999991pt" preserveAspectRatio="xMidYMid meet" version="1.2"><defs><clipPath xml:id="clip1" id="clip1"><path d="M 41.945312 41.976562 L 333.546875 41.976562 L 333.546875 193 L 41.945312 193 Z M 41.945312 41.976562 "/></clipPath><clipPath xml:id="clip2" id="clip2"><path d="M 41.945312 186.261719 L 333.546875 186.261719 L 333.546875 332.941406 L 41.945312 332.941406 Z M 41.945312 186.261719 "/></clipPath><clipPath xml:id="clip3" id="clip3"><path d="M 42 187 L 333 187 L 333 332.941406 L 42 332.941406 Z M 42 187 "/></clipPath></defs><g xml:id="surface1" id="surface1"><path style=" stroke:none;fill-rule:nonzero;fill:rgb(100%,100%,100%);fill-opacity:1;" d="M 330.480469 187.464844 C 330.480469 108.902344 266.621094 45.214844 187.847656 45.214844 C 109.078125 45.214844 45.21875 108.902344 45.21875 187.464844 C 45.21875 188.191406 45.226562 188.914062 45.238281 189.636719 L 330.460938 189.636719 C 330.472656 188.914062 330.480469 188.191406 330.480469 187.464844 "/><g clip-rule="nonzero" clip-path="url(#clip1)"><path style=" stroke:none;fill-rule:nonzero;fill:rgb(0%,0%,0%);fill-opacity:1;" d="M 48.464844 186.402344 L 327.230469 186.402344 C 326.65625 110.238281 264.351562 48.449219 187.847656 48.449219 C 111.347656 48.449219 49.042969 110.238281 48.464844 186.402344 Z M 333.65625 192.871094 L 42.042969 192.871094 L 41.992188 189.6875 C 41.984375 188.945312 41.976562 188.207031 41.976562 187.464844 C 41.976562 167.828125 45.832031 148.773438 53.441406 130.832031 C 60.789062 113.507812 71.304688 97.949219 84.699219 84.589844 C 98.097656 71.230469 113.695312 60.738281 131.066406 53.414062 C 149.054688 45.824219 168.15625 41.976562 187.847656 41.976562 C 207.539062 41.976562 226.644531 45.824219 244.632812 53.414062 C 262 60.738281 277.601562 71.230469 290.996094 84.589844 C 304.390625 97.949219 314.910156 113.507812 322.257812 130.832031 C 329.867188 148.773438 333.722656 167.828125 333.722656 187.464844 C 333.722656 188.207031 333.714844 188.945312 333.703125 189.683594 L 333.65625 192.871094 "/></g><path style=" stroke:none;fill-rule:nonzero;fill:rgb(100%,100%,100%);fill-opacity:1;" d="M 45.238281 189.636719 C 46.402344 267.199219 109.804688 329.714844 187.847656 329.714844 C 265.894531 329.714844 329.296875 267.199219 330.460938 189.636719 L 45.238281 189.636719 "/><g clip-rule="nonzero" clip-path="url(#clip2)"><path style=" stroke:none;fill-rule:nonzero;fill:rgb(0%,0%,0%);fill-opacity:1;" d="M 48.570312 192.871094 C 51.433594 266.84375 113.234375 326.480469 187.847656 326.480469 C 262.464844 326.480469 324.265625 266.84375 327.128906 192.871094 Z M 187.847656 332.953125 C 168.339844 332.953125 149.398438 329.171875 131.550781 321.722656 C 114.316406 314.523438 98.800781 304.210938 85.433594 291.066406 C 72.078125 277.933594 61.523438 262.613281 54.0625 245.539062 C 46.347656 227.878906 42.285156 209.085938 41.992188 189.683594 L 41.945312 186.402344 L 333.753906 186.402344 L 333.703125 189.683594 C 333.414062 209.085938 329.351562 227.878906 321.632812 245.539062 C 314.175781 262.613281 303.617188 277.933594 290.261719 291.066406 C 276.898438 304.210938 261.382812 314.523438 244.144531 321.722656 C 226.300781 329.171875 207.359375 332.953125 187.847656 332.953125 "/></g><path style=" stroke:none;fill-rule:nonzero;fill:rgb(0.779724%,0.779724%,0.779724%);fill-opacity:1;" d="M 229.042969 187.464844 C 229.042969 210.15625 210.601562 228.550781 187.847656 228.550781 C 165.097656 228.550781 146.652344 210.15625 146.652344 187.464844 C 146.652344 164.773438 165.097656 146.378906 187.847656 146.378906 C 210.601562 146.378906 229.042969 164.773438 229.042969 187.464844 "/><path style=" stroke:none;fill-rule:nonzero;fill:rgb(0%,0%,0%);fill-opacity:1;" d="M 187.847656 148.804688 C 166.476562 148.804688 149.085938 166.148438 149.085938 187.464844 C 149.085938 208.78125 166.476562 226.125 187.847656 226.125 C 209.222656 226.125 226.609375 208.78125 226.609375 187.464844 C 226.609375 166.148438 209.222656 148.804688 187.847656 148.804688 Z M 187.847656 230.976562 C 163.792969 230.976562 144.222656 211.457031 144.222656 187.464844 C 144.222656 163.472656 163.792969 143.953125 187.847656 143.953125 C 211.90625 143.953125 231.476562 163.472656 231.476562 187.464844 C 231.476562 211.457031 211.90625 230.976562 187.847656 230.976562 "/><path style=" stroke:none;fill-rule:nonzero;fill:rgb(100%,100%,100%);fill-opacity:1;" d="M 220.285156 187.464844 C 220.285156 205.332031 205.765625 219.816406 187.847656 219.816406 C 169.933594 219.816406 155.410156 205.332031 155.410156 187.464844 C 155.410156 169.597656 169.933594 155.113281 187.847656 155.113281 C 205.765625 155.113281 220.285156 169.597656 220.285156 187.464844 "/><path style=" stroke:none;fill-rule:nonzero;fill:rgb(0%,0%,0%);fill-opacity:1;" d="M 187.847656 157.539062 C 171.304688 157.539062 157.84375 170.964844 157.84375 187.464844 C 157.84375 203.964844 171.304688 217.390625 187.847656 217.390625 C 204.394531 217.390625 217.851562 203.964844 217.851562 187.464844 C 217.851562 170.964844 204.394531 157.539062 187.847656 157.539062 Z M 187.847656 222.242188 C 168.621094 222.242188 152.980469 206.640625 152.980469 187.464844 C 152.980469 168.289062 168.621094 152.6875 187.847656 152.6875 C 207.078125 152.6875 222.71875 168.289062 222.71875 187.464844 C 222.71875 206.640625 207.078125 222.242188 187.847656 222.242188 "/><path style=" stroke:none;fill-rule:nonzero;fill:rgb(100%,2.349854%,2.349854%);fill-opacity:1;" d="M 187.847656 228.96875 C 165.828125 228.96875 147.84375 211.734375 146.710938 190.050781 L 45.238281 190.050781 C 46.402344 267.613281 109.804688 330.132812 187.847656 330.132812 C 265.894531 330.132812 329.296875 267.613281 330.460938 190.050781 L 228.988281 190.050781 C 227.855469 211.734375 209.871094 228.96875 187.847656 228.96875 "/><g clip-rule="nonzero" clip-path="url(#clip3)"><path style=" stroke:none;fill-rule:nonzero;fill:rgb(0%,0%,0%);fill-opacity:1;" d="M 47.730469 192.480469 C 50.175781 267.265625 112.519531 327.707031 187.847656 327.707031 C 263.175781 327.707031 325.519531 267.265625 327.96875 192.480469 L 231.234375 192.480469 C 228.925781 214.480469 210.296875 231.394531 187.847656 231.394531 C 165.402344 231.394531 146.773438 214.480469 144.464844 192.480469 Z M 187.847656 332.558594 C 168.449219 332.558594 149.609375 328.800781 131.863281 321.390625 C 114.726562 314.234375 99.296875 303.976562 86.003906 290.90625 C 72.722656 277.84375 62.226562 262.613281 54.808594 245.632812 C 47.132812 228.070312 43.09375 209.382812 42.804688 190.089844 L 42.769531 187.625 L 149.019531 187.625 L 149.140625 189.925781 C 150.214844 210.457031 167.214844 226.539062 187.847656 226.539062 C 208.480469 226.539062 225.484375 210.457031 226.558594 189.925781 L 226.679688 187.625 L 332.929688 187.625 L 332.894531 190.089844 C 332.605469 209.382812 328.566406 228.070312 320.890625 245.632812 C 313.472656 262.613281 302.976562 277.84375 289.691406 290.90625 C 276.402344 303.976562 260.972656 314.234375 243.832031 321.390625 C 226.085938 328.800781 207.25 332.558594 187.847656 332.558594 "/></g></g></svg>